<svg width="110" height="36" viewBox="0 0 110 36" fill="none" xmlns="http://www.w3.org/2000/svg">
<path d="M102.934 35V10H109.143V35H102.934ZM106.018 7.25C105.045 7.25 104.212 6.91667 103.518 6.25C102.851 5.55555 102.518 4.72222 102.518 3.75C102.518 2.77778 102.851 1.95833 103.518 1.29167C104.212 0.597222 105.045 0.25 106.018 0.25C106.99 0.25 107.809 0.597222 108.476 1.29167C109.17 1.95833 109.518 2.77778 109.518 3.75C109.518 4.72222 109.17 5.55555 108.476 6.25C107.809 6.91667 106.99 7.25 106.018 7.25Z" fill="#FFB000"/>
<path d="M81.6992 35.4583C78.7825 35.4583 76.4908 34.75 74.8242 33.3333C73.1853 31.9167 72.3658 30.0417 72.3658 27.7083C72.3658 25.2639 73.1992 23.375 74.8658 22.0417C76.5603 20.7083 78.9908 20.0417 82.1575 20.0417H89.7825V19.0417C89.7825 15.9861 88.0047 14.4583 84.4492 14.4583C81.4492 14.4583 79.6297 15.5417 78.9908 17.7083H72.7825C73.2825 15.0417 74.5325 13.0139 76.5325 11.625C78.5603 10.2083 81.1992 9.5 84.4492 9.5C88.1158 9.5 90.9075 10.3333 92.8242 12C94.7408 13.6389 95.6992 16.0417 95.6992 19.2083V28.7917H98.6575V35H92.2825V31H90.5325C89.6714 32.4167 88.5047 33.5139 87.0325 34.2917C85.5881 35.0694 83.8103 35.4583 81.6992 35.4583ZM82.6158 30.6667C83.977 30.6667 85.1992 30.4167 86.2825 29.9167C87.3658 29.3889 88.2131 28.6944 88.8242 27.8333C89.4631 26.9444 89.7825 25.9583 89.7825 24.875V24.2917H82.4908C79.6853 24.2917 78.2825 25.3333 78.2825 27.4167C78.2825 28.4444 78.6575 29.25 79.4075 29.8333C80.1853 30.3889 81.2547 30.6667 82.6158 30.6667Z" fill="#FFB000"/>
<path d="M62.0885 35V0H68.2968V35H62.0885Z" fill="#0F172B"/>
<path d="M45.8515 35.5C43.157 35.5 40.8237 34.9722 38.8515 33.9167C36.8793 32.8333 35.3515 31.3194 34.2681 29.375C33.2126 27.4028 32.6848 25.0833 32.6848 22.4167C32.6848 19.75 33.2126 17.4583 34.2681 15.5417C35.3237 13.5972 36.8237 12.1111 38.7681 11.0833C40.7126 10.0278 42.9904 9.5 45.6015 9.5C48.157 9.5 50.3515 10 52.1848 11C54.0181 11.9722 55.4348 13.3889 56.4348 15.25C57.4348 17.0833 57.9348 19.2639 57.9348 21.7917V23.9583H38.6848C38.907 26.0694 39.6293 27.6944 40.8515 28.8333C42.1015 29.9444 43.7543 30.5 45.8098 30.5C47.3376 30.5 48.5737 30.2222 49.5181 29.6667C50.4904 29.0833 51.1709 28.2222 51.5598 27.0833H57.8098C57.2265 29.7222 55.8793 31.7917 53.7681 33.2917C51.6848 34.7639 49.0459 35.5 45.8515 35.5ZM38.8098 19.75H51.9765C51.7265 18.0278 51.0598 16.7222 49.9765 15.8333C48.8931 14.9167 47.4348 14.4583 45.6015 14.4583C43.7959 14.4583 42.3098 14.9167 41.1431 15.8333C39.9765 16.75 39.1987 18.0556 38.8098 19.75Z" fill="#0F172B"/>
<path d="M0 35V1.25H17.0833C20.6389 1.25 23.4167 2.06944 25.4167 3.70833C27.4444 5.31945 28.4583 7.56945 28.4583 10.4583C28.4583 12.1806 28.0556 13.6667 27.25 14.9167C26.4722 16.1667 25.3333 17.0972 23.8333 17.7083V17.875C25.3056 17.875 26.4444 18.2778 27.25 19.0833C28.0556 19.8611 28.4583 21.0139 28.4583 22.5417V35H22.125V21.8333H6.375V35H0ZM6.375 16.4167H16.625C18.4028 16.4167 19.7778 16 20.75 15.1667C21.7222 14.3056 22.2083 13.1111 22.2083 11.5833C22.2083 10.0278 21.7222 8.83333 20.75 8C19.7778 7.13889 18.4028 6.70833 16.625 6.70833H6.375V16.4167Z" fill="#0F172B"/>
</svg>
